<svg xmlns="http://www.w3.org/2000/svg" width="512" height="512" viewBox="0 0 512 512"><rect width="512" height="512" rx="96" fill="#1b1e22"/><svg x="36" y="36" width="440" height="440" viewBox="0 0 660.42 629.23" preserveAspectRatio="xMidYMid meet"><g transform="scale(0.4999394398183194) translate(0,1259) scale(0.1,-0.1)" fill="#55ad52"><path d="M8683 12119 c-120 -59 -236 -263 -347 -609 -44 -136 -108 -383 -121
-465 -11 -70 -14 -70 -50 -11 -110 182 -338 396 -520 486 -136 68 -225 72
-295 14 -39 -34 -115 -188 -141 -289 -27 -106 -36 -348 -19 -520 6 -69 10
-128 7 -131 -2 -3 -58 33 -124 79 -165 114 -227 141 -312 135 -69 -5 -150 -38
-183 -75 -25 -27 -75 -140 -92 -207 -9 -32 -29 -151 -46 -265 l-31 -206 -518
-515 c-523 -520 -640 -647 -808 -881 -200 -280 -461 -715 -775 -1294 -238
-437 -306 -588 -429 -955 -93 -279 -141 -449 -289 -1035 -239 -944 -368 -1329
-594 -1770 -157 -307 -330 -564 -543 -802 l-38 -43 -115 70 c-240 145 -425
200 -507 151 -107 -66 -159 -327 -118 -596 9 -64 16 -118 13 -120 -2 -2 -91
55 -197 126 -106 71 -226 145 -265 164 -182 87 -307 81 -355 -17 -47 -98 -55
-164 -55 -468 -1 -157 2 -348 6 -425 l8 -140 -76 -55 c-75 -54 -149 -131 -213
-219 -52 -73 -39 -156 49 -331 134 -266 328 -418 649 -511 589 -168 1178 -181
1906 -39 549 107 1032 238 1445 392 299 111 546 269 691 441 29 34 58 68 65
76 10 11 75 -9 390 -119 420 -147 462 -160 619 -195 485 -106 1325 -134 2090
-69 728 61 1371 186 1904 369 583 200 1134 549 1591 1005 149 150 214 233 279
360 70 136 112 257 172 490 51 203 52 207 56 385 4 153 0 224 -27 469 -82 769
-172 1185 -347 1600 -120 286 -214 449 -495 867 l-18 25 131 150 c167 190 219
263 284 399 134 280 227 651 241 964 6 114 7 118 55 216 131 269 131 522 -1
800 -68 143 -176 294 -378 530 -33 39 -87 120 -119 180 -360 666 -846 1083
-1493 1278 -228 69 -501 118 -757 135 -68 5 -125 11 -128 14 -3 3 -19 55 -35
114 -60 228 -147 432 -252 589 -68 102 -236 278 -292 304 -53 26 -80 26 -133
0z m212 -209 c10 -11 16 -20 13 -20 -3 0 -13 9 -23 20 -10 11 -16 20 -13 20 3
0 13 -9 23 -20z m112 -826 c-3 -3 -12 -4 -19 -1 -8 3 -5 6 6 6 11 1 17 -2 13
-5z m-110 -10 c-3 -3 -12 -4 -19 -1 -8 3 -5 6 6 6 11 1 17 -2 13 -5z m-114
-11 c-7 -2 -19 -2 -25 0 -7 3 -2 5 12 5 14 0 19 -2 13 -5z m-136 -9 c-3 -3
-12 -4 -19 -1 -8 3 -5 6 6 6 11 1 17 -2 13 -5z m-144 -11 c-7 -2 -21 -2 -30 0
-10 3 -4 5 12 5 17 0 24 -2 18 -5z m-1176 -145 c-3 -8 -6 -5 -6 6 -1 11 2 17
5 13 3 -3 4 -12 1 -19z m2101 -15 c-10 -2 -28 -2 -40 0 -13 2 -5 4 17 4 22 1
32 -1 23 -4z m380 0 c-10 -2 -26 -2 -35 0 -10 3 -2 5 17 5 19 0 27 -2 18 -5z
m-595 -10 c-7 -2 -21 -2 -30 0 -10 3 -4 5 12 5 17 0 24 -2 18 -5z m734 1 c-3
-3 -12 -4 -19 -1 -8 3 -5 6 6 6 11 1 17 -2 13 -5z m-890 -10 c-3 -3 -12 -4
-19 -1 -8 3 -5 6 6 6 11 1 17 -2 13 -5z m-1740 -166 c-2 -13 -4 -3 -4 22 0 25
2 35 4 23 2 -13 2 -33 0 -45z m-500 -14 c-3 -3 -12 -4 -19 -1 -8 3 -5 6 6 6
11 1 17 -2 13 -5z m4464 -501 c13 -16 12 -17 -3 -4 -10 7 -18 15 -18 17 0 8 8
3 21 -13z m-694 -9 c-3 -3 -12 -4 -19 -1 -8 3 -5 6 6 6 11 1 17 -2 13 -5z m40
0 c-3 -3 -12 -4 -19 -1 -8 3 -5 6 6 6 11 1 17 -2 13 -5z m-137 -38 c0 -2 -8
-10 -17 -17 -16 -13 -17 -12 -4 4 13 16 21 21 21 13z m-1960 -40 c0 -2 -8 -10
-17 -17 -16 -13 -17 -12 -4 4 13 16 21 21 21 13z m155 -46 c10 -11 16 -20 13
-20 -3 0 -13 9 -23 20 -10 11 -16 20 -13 20 3 0 13 -9 23 -20z m1922 -182 c-3
-8 -6 -5 -6 6 -1 11 2 17 5 13 3 -3 4 -12 1 -19z m220 -20 c-3 -8 -6 -5 -6 6
-1 11 2 17 5 13 3 -3 4 -12 1 -19z m-430 -30 c-3 -8 -6 -5 -6 6 -1 11 2 17 5
13 3 -3 4 -12 1 -19z m200 -70 c-3 -7 -5 -2 -5 12 0 14 2 19 5 13 2 -7 2 -19
0 -25z m60 -10 c-3 -7 -5 -2 -5 12 0 14 2 19 5 13 2 -7 2 -19 0 -25z m180 -20
c-3 -7 -5 -2 -5 12 0 14 2 19 5 13 2 -7 2 -19 0 -25z m-460 -100 c-3 -8 -6 -5
-6 6 -1 11 2 17 5 13 3 -3 4 -12 1 -19z m-10 -140 c-3 -7 -5 -2 -5 12 0 14 2
19 5 13 2 -7 2 -19 0 -25z m290 -5 c-3 -10 -5 -4 -5 12 0 17 2 24 5 18 2 -7 2
-21 0 -30z m-4527 -36 c0 -2 -17 -19 -37 -38 l-38 -34 34 38 c33 34 41 42 41
34z m2187 -44 c-3 -10 -5 -2 -5 17 0 19 2 27 5 18 2 -10 2 -26 0 -35z m330 5
c-3 -8 -6 -5 -6 6 -1 11 2 17 5 13 3 -3 4 -12 1 -19z m1950 -30 c-3 -7 -5 -2
-5 12 0 14 2 19 5 13 2 -7 2 -19 0 -25z m240 -5 c-3 -10 -5 -4 -5 12 0 17 2
24 5 18 2 -7 2 -21 0 -30z m-190 -5 c-3 -8 -6 -5 -6 6 -1 11 2 17 5 13 3 -3 4
-12 1 -19z m-2070 -60 c-3 -8 -6 -5 -6 6 -1 11 2 17 5 13 3 -3 4 -12 1 -19z
m290 -30 c-3 -8 -6 -5 -6 6 -1 11 2 17 5 13 3 -3 4 -12 1 -19z m1740 0 c-3 -8
-6 -5 -6 6 -1 11 2 17 5 13 3 -3 4 -12 1 -19z m-250 -55 c-2 -16 -4 -5 -4 22
0 28 2 40 4 28 2 -13 2 -35 0 -50z m-1700 -65 c-2 -24 -4 -5 -4 42 0 47 2 66
4 43 2 -24 2 -62 0 -85z m2170 90 c-3 -8 -6 -5 -6 6 -1 11 2 17 5 13 3 -3 4
-12 1 -19z m-2510 -55 c-3 -10 -5 -2 -5 17 0 19 2 27 5 18 2 -10 2 -26 0 -35z
m270 5 c-3 -8 -6 -5 -6 6 -1 11 2 17 5 13 3 -3 4 -12 1 -19z m2043 -6 c0 -15
-2 -15 -10 -2 -13 20 -13 33 0 25 6 -3 10 -14 10 -23z m-4740 15 c0 -2 -15
-16 -32 -33 l-33 -29 29 33 c28 30 36 37 36 29z m2707 -99 c-3 -8 -6 -5 -6 6
-1 11 2 17 5 13 3 -3 4 -12 1 -19z m290 -60 c-3 -7 -5 -2 -5 12 0 14 2 19 5
13 2 -7 2 -19 0 -25z m-560 0 c-3 -8 -6 -5 -6 6 -1 11 2 17 5 13 3 -3 4 -12 1
-19z m-2587 -2 c0 -2 -8 -10 -17 -17 -16 -13 -17 -12 -4 4 13 16 21 21 21 13z
m-80 -90 c0 -2 -8 -10 -17 -17 -16 -13 -17 -12 -4 4 13 16 21 21 21 13z m2957
-28 c-3 -8 -6 -5 -6 6 -1 11 2 17 5 13 3 -3 4 -12 1 -19z m270 -280 c-3 -8 -6
-5 -6 6 -1 11 2 17 5 13 3 -3 4 -12 1 -19z m3340 -50 c-2 -13 -4 -3 -4 22 0
25 2 35 4 23 2 -13 2 -33 0 -45z m-5027 -242 c0 -2 -8 -10 -17 -17 -16 -13
-17 -12 -4 4 13 16 21 21 21 13z m4857 -558 c-3 -8 -6 -5 -6 6 -1 11 2 17 5
13 3 -3 4 -12 1 -19z m-250 -290 c-3 -8 -6 -5 -6 6 -1 11 2 17 5 13 3 -3 4
-12 1 -19z m-830 -254 c-3 -3 -12 -4 -19 -1 -8 3 -5 6 6 6 11 1 17 -2 13 -5z
m-4280 -76 c-3 -8 -6 -5 -6 6 -1 11 2 17 5 13 3 -3 4 -12 1 -19z m3880 -80
c-3 -7 -5 -2 -5 12 0 14 2 19 5 13 2 -7 2 -19 0 -25z m-1579 5 c-10 -2 -28 -2
-40 0 -13 2 -5 4 17 4 22 1 32 -1 23 -4z m209 -9 c-3 -3 -12 -4 -19 -1 -8 3
-5 6 6 6 11 1 17 -2 13 -5z m136 -11 c-7 -2 -19 -2 -25 0 -7 3 -2 5 12 5 14 0
19 -2 13 -5z m-2646 -25 c-3 -8 -6 -5 -6 6 -1 11 2 17 5 13 3 -3 4 -12 1 -19z
m2786 15 c-7 -2 -19 -2 -25 0 -7 3 -2 5 12 5 14 0 19 -2 13 -5z m334 1 c-3 -3
-12 -4 -19 -1 -8 3 -5 6 6 6 11 1 17 -2 13 -5z m-934 -81 c-7 -2 -21 -2 -30 0
-10 3 -4 5 12 5 17 0 24 -2 18 -5z m75 0 c-10 -2 -26 -2 -35 0 -10 3 -2 5 17
5 19 0 27 -2 18 -5z m2662 -6 c0 -2 -12 -14 -27 -28 l-28 -24 24 28 c23 25 31
32 31 24z m-1937 -34 c-29 -2 -77 -2 -105 0 -29 2 -6 3 52 3 58 0 81 -1 53 -3z
m2007 -86 c0 -2 -12 -14 -27 -28 l-28 -24 24 28 c23 25 31 32 31 24z m-70 -70
c0 -2 -12 -14 -27 -28 l-28 -24 24 28 c23 25 31 32 31 24z m-1120 -61 c0 -2
-8 -10 -17 -17 -16 -13 -17 -12 -4 4 13 16 21 21 21 13z m-610 -89 c0 -2 -17
-19 -37 -38 l-38 -34 34 38 c33 34 41 42 41 34z m517 -53 c-3 -3 -12 -4 -19
-1 -8 3 -5 6 6 6 11 1 17 -2 13 -5z m-1367 -97 c0 -2 -10 -12 -22 -23 l-23
-19 19 23 c18 21 26 27 26 19z m-1739 -244 c13 -16 12 -17 -3 -4 -10 7 -18 15
-18 17 0 8 8 3 21 -13z m2066 -619 c-3 -3 -12 -4 -19 -1 -8 3 -5 6 6 6 11 1
17 -2 13 -5z m-610 -10 c-3 -3 -12 -4 -19 -1 -8 3 -5 6 6 6 11 1 17 -2 13 -5z
m500 0 c-3 -3 -12 -4 -19 -1 -8 3 -5 6 6 6 11 1 17 -2 13 -5z m-244 -11 c-13
-2 -35 -2 -50 0 -16 2 -5 4 22 4 28 0 40 -2 28 -4z m744 -69 c-3 -3 -12 -4
-19 -1 -8 3 -5 6 6 6 11 1 17 -2 13 -5z m-1080 -40 c-3 -3 -12 -4 -19 -1 -8 3
-5 6 6 6 11 1 17 -2 13 -5z m790 0 c-3 -3 -12 -4 -19 -1 -8 3 -5 6 6 6 11 1
17 -2 13 -5z m-634 -11 c-7 -2 -19 -2 -25 0 -7 3 -2 5 12 5 14 0 19 -2 13 -5z
m495 0 c-10 -2 -26 -2 -35 0 -10 3 -2 5 17 5 19 0 27 -2 18 -5z m542 -88 c19
-19 32 -35 29 -35 -3 0 -20 16 -39 35 -19 19 -32 35 -29 35 3 0 20 -16 39 -35z
m-1957 -92 c-7 -2 -21 -2 -30 0 -10 3 -4 5 12 5 17 0 24 -2 18 -5z m144 -9
c-3 -3 -12 -4 -19 -1 -8 3 -5 6 6 6 11 1 17 -2 13 -5z m1960 -96 c-2 -13 -4
-5 -4 17 -1 22 1 32 4 23 2 -10 2 -28 0 -40z m-1736 15 c13 -16 12 -17 -3 -4
-10 7 -18 15 -18 17 0 8 8 3 21 -13z m1856 -110 c-3 -10 -5 -4 -5 12 0 17 2
24 5 18 2 -7 2 -21 0 -30z m-1860 -95 c-3 -8 -6 -5 -6 6 -1 11 2 17 5 13 3 -3
4 -12 1 -19z m0 -70 c-3 -7 -5 -2 -5 12 0 14 2 19 5 13 2 -7 2 -19 0 -25z
m1850 0 c-3 -7 -5 -2 -5 12 0 14 2 19 5 13 2 -7 2 -19 0 -25z m-120 -40 c-2
-13 -4 -5 -4 17 -1 22 1 32 4 23 2 -10 2 -28 0 -40z m-1733 -43 c3 -8 1 -15
-4 -15 -6 0 -10 7 -10 15 0 8 2 15 4 15 2 0 6 -7 10 -15z m303 -77 c-3 -7 -5
-2 -5 12 0 14 2 19 5 13 2 -7 2 -19 0 -25z m-1612 -38 c10 -11 16 -20 13 -20
-3 0 -13 9 -23 20 -10 11 -16 20 -13 20 3 0 13 -9 23 -20z m3152 -27 c-3 -10
-5 -2 -5 17 0 19 2 27 5 18 2 -10 2 -26 0 -35z m-120 -85 c-2 -13 -4 -5 -4 17
-1 22 1 32 4 23 2 -10 2 -28 0 -40z m-2930 -225 c-2 -21 -4 -4 -4 37 0 41 2
58 4 38 2 -21 2 -55 0 -75z m140 45 c-3 -7 -5 -2 -5 12 0 14 2 19 5 13 2 -7 2
-19 0 -25z m2900 -55 c-2 -16 -4 -5 -4 22 0 28 2 40 4 28 2 -13 2 -35 0 -50z
m-120 -45 c-2 -13 -4 -5 -4 17 -1 22 1 32 4 23 2 -10 2 -28 0 -40z m-3872 22
c3 -6 -1 -7 -9 -4 -18 7 -21 14 -7 14 6 0 13 -4 16 -10z m1102 -52 c-3 -8 -6
-5 -6 6 -1 11 2 17 5 13 3 -3 4 -12 1 -19z m4820 -10 c-3 -8 -6 -5 -6 6 -1 11
2 17 5 13 3 -3 4 -12 1 -19z m10 -140 c-3 -7 -5 -2 -5 12 0 14 2 19 5 13 2 -7
2 -19 0 -25z m-2070 -100 c-2 -13 -4 -3 -4 22 0 25 2 35 4 23 2 -13 2 -33 0
-45z m-2696 -35 c13 -16 12 -17 -3 -4 -10 7 -18 15 -18 17 0 8 8 3 21 -13z
m4776 -50 c-3 -10 -5 -2 -5 17 0 19 2 27 5 18 2 -10 2 -26 0 -35z m-2090 -350
c-2 -27 -3 -5 -3 47 0 52 1 74 3 48 2 -27 2 -69 0 -95z m1130 65 c-3 -8 -6 -5
-6 6 -1 11 2 17 5 13 3 -3 4 -12 1 -19z m-4692 -18 c10 -11 16 -20 13 -20 -3
0 -13 9 -23 20 -10 11 -16 20 -13 20 3 0 13 -9 23 -20z m1812 -92 c-3 -8 -6
-5 -6 6 -1 11 2 17 5 13 3 -3 4 -12 1 -19z m1890 -85 c-2 -21 -4 -6 -4 32 0
39 2 55 4 38 2 -18 2 -50 0 -70z m-3786 70 c13 -16 12 -17 -3 -4 -10 7 -18 15
-18 17 0 8 8 3 21 -13z m4786 -35 c-3 -8 -6 -5 -6 6 -1 11 2 17 5 13 3 -3 4
-12 1 -19z m-4299 5 c-16 -2 -40 -2 -55 0 -16 2 -3 4 27 4 30 0 43 -2 28 -4z
m1269 -55 c-3 -8 -6 -5 -6 6 -1 11 2 17 5 13 3 -3 4 -12 1 -19z m-1154 -55
c-7 -2 -19 -2 -25 0 -7 3 -2 5 12 5 14 0 19 -2 13 -5z m5134 -25 c-3 -8 -6 -5
-6 6 -1 11 2 17 5 13 3 -3 4 -12 1 -19z m-3990 -10 c-3 -8 -6 -5 -6 6 -1 11 2
17 5 13 3 -3 4 -12 1 -19z m-1050 -80 c-3 -7 -5 -2 -5 12 0 14 2 19 5 13 2 -7
2 -19 0 -25z m150 -10 c-3 -8 -6 -5 -6 6 -1 11 2 17 5 13 3 -3 4 -12 1 -19z
m890 -20 c-3 -8 -6 -5 -6 6 -1 11 2 17 5 13 3 -3 4 -12 1 -19z m2060 -110 c-2
-13 -4 -5 -4 17 -1 22 1 32 4 23 2 -10 2 -28 0 -40z m-2070 -40 c-3 -7 -5 -2
-5 12 0 14 2 19 5 13 2 -7 2 -19 0 -25z m1920 -160 c-2 -18 -4 -4 -4 32 0 36
2 50 4 33 2 -18 2 -48 0 -65z m160 -25 c-3 -10 -5 -4 -5 12 0 17 2 24 5 18 2
-7 2 -21 0 -30z m-2590 21 c-3 -3 -12 -4 -19 -1 -8 3 -5 6 6 6 11 1 17 -2 13
-5z m150 0 c-3 -3 -12 -4 -19 -1 -8 3 -5 6 6 6 11 1 17 -2 13 -5z m110 -100
c-3 -3 -12 -4 -19 -1 -8 3 -5 6 6 6 11 1 17 -2 13 -5z m2459 -116 l29 -33 -32
29 c-18 17 -33 31 -33 33 0 8 8 1 36 -29z m-141 -48 c27 -27 47 -50 44 -50 -3
0 -27 23 -54 50 -27 28 -47 50 -44 50 3 0 27 -22 54 -50z m-8298 -142 c-3 -8
-6 -5 -6 6 -1 11 2 17 5 13 3 -3 4 -12 1 -19z m393 -31 c0 -1 -26 -27 -57 -57
l-58 -55 55 58 c50 53 60 62 60 54z m9420 -1 c0 -2 -8 -10 -17 -17 -16 -13
-17 -12 -4 4 13 16 21 21 21 13z m-9130 -100 c0 -2 -8 -10 -17 -17 -16 -13
-17 -12 -4 4 13 16 21 21 21 13z m-683 -58 c-3 -8 -6 -5 -6 6 -1 11 2 17 5 13
3 -3 4 -12 1 -19z m573 -62 c0 -2 -8 -10 -17 -17 -16 -13 -17 -12 -4 4 13 16
21 21 21 13z m9010 -10 c0 -2 -8 -10 -17 -17 -16 -13 -17 -12 -4 4 13 16 21
21 21 13z m-9810 -193 c0 -8 -9 0 -50 45 l-45 47 48 -45 c26 -24 47 -45 47
-47z m680 74 c0 -2 -10 -12 -22 -23 l-23 -19 19 23 c18 21 26 27 26 19z
m-1293 -59 c-3 -8 -6 -5 -6 6 -1 11 2 17 5 13 3 -3 4 -12 1 -19z m1133 -111
c0 -1 -28 -29 -62 -62 l-63 -60 60 63 c55 58 65 67 65 59z m-1123 -29 c-3 -8
-6 -5 -6 6 -1 11 2 17 5 13 3 -3 4 -12 1 -19z m10 -100 c-3 -8 -6 -5 -6 6 -1
11 2 17 5 13 3 -3 4 -12 1 -19z m3890 -95 c-3 -10 -5 -2 -5 17 0 19 2 27 5 18
2 -10 2 -26 0 -35z m-3997 -597 c0 -2 -8 -10 -17 -17 -16 -13 -17 -12 -4 4 13
16 21 21 21 13z m5977 -22 c-3 -3 -12 -4 -19 -1 -8 3 -5 6 6 6 11 1 17 -2 13
-5z m120 -10 c-3 -3 -12 -4 -19 -1 -8 3 -5 6 6 6 11 1 17 -2 13 -5z m146 -11
c-7 -2 -19 -2 -25 0 -7 3 -2 5 12 5 14 0 19 -2 13 -5z m1450 0 c-7 -2 -19 -2
-25 0 -7 3 -2 5 12 5 14 0 19 -2 13 -5z m-1255 -10 c-10 -2 -26 -2 -35 0 -10
3 -2 5 17 5 19 0 27 -2 18 -5z m1060 0 c-10 -2 -26 -2 -35 0 -10 3 -2 5 17 5
19 0 27 -2 18 -5z m-445 -10 c-62 -2 -164 -2 -225 0 -62 1 -12 3 112 3 124 0
174 -2 113 -3z m-5306 -689 c-3 -3 -12 -4 -19 -1 -8 3 -5 6 6 6 11 1 17 -2 13
-5z m-830 -10 c-3 -3 -12 -4 -19 -1 -8 3 -5 6 6 6 11 1 17 -2 13 -5z m100 -10
c-3 -3 -12 -4 -19 -1 -8 3 -5 6 6 6 11 1 17 -2 13 -5z m540 0 c-3 -3 -12 -4
-19 -1 -8 3 -5 6 6 6 11 1 17 -2 13 -5z m-219 -11 c-32 -2 -84 -2 -115 0 -32
2 -6 3 57 3 63 0 89 -1 58 -3z"/></g><g fill="#0c0d0f"><path d="M622.55,447.04v14c-4.02,17.22-7.1,36.09-20.01,50.12-17.94,19.5-39.97,35.79-64.06,47.47-66.08,32.03-190.53,35.19-233.67,20.11l-37.03-12.94c-9.89,13.38-24.24,21.5-39.38,27-24.87,9.03-49.12,14.96-75.11,19.9-32.21,6.12-64.1,6.01-95.45-3.92-16.92-5.36-26.96-17.46-32.22-33.75v-5c4.11-6.37,9.19-11.81,16.05-16.05-.61-10.14-4.6-50.87,4.86-54.66,10.79-4.32,27.53,11.26,38.23,17.23-2.4-12.43-3.57-24.31,2.92-34.49,5.25-8.23,26.92,5.28,32.97,9.4,59.64-64.14,52.55-152.13,88.61-218.98,13.54-25.1,26.83-49.67,42.87-73.15,18.92-27.67,45.45-48.38,68.16-72.59,2.47-11.15,1.7-22.48,7.68-32.82,2.09-3.61,10.13-6.2,14.43-4.59,6.56,2.46,12.19,7.47,17.81,11.1-2.05-15.58-3.16-33.81,6.22-46.57,9.15-12.44,38.59,14.68,43.55,27.33,1.55-10.96,15.44-71.7,33.41-55.99,14.82,12.96,21.66,29.34,26.08,48.95,56.98,2.48,95.8,24.63,121.13,74.91,4.45,8.83,43.82,39.07,20.55,75.82-.32,19.71-4.75,38.57-12.79,55.88-4.73,10.17-12.98,17.3-20.47,26.52,35.61,48.6,39.03,84.14,44.65,139.76ZM460.2,74.22c-2.53-13.71-5.62-25.02-11.95-35.6-2.45-3.33-6-8.43-10.57-7.65-8.91,14.77-15.99,29.85-20.22,46.74,15.26-.81,27.91-1.88,42.74-3.5ZM398.57,84.89c.73-8.73-3.98-14.67-9.37-19.46-4.17-4.24-8.26-9.09-14.88-10.1-6.79,13.03-9.12,27.92-8.58,43.1,10.85-6.49,20.83-10.21,32.84-13.54ZM343.23,243.72c3.25-7.69,6.05-41.46,20.3-34.9-13.09,8.91-9.97,25-15.19,36.65-8.04,17.92-11.05,33.7.83,51.19,11.7,17.22,25.12,35.14,45.89,42.98,27.34,10.31,57.2,11.92,86.32,6.74,27.53-4.9,51.71-18.9,73.87-35.38,30.78-22.88,46.09-35.26,47.9-77.73-25.94,8.86,2.6,36.37-36.27,57.75l-17.64-23.72c-2.52-.77-8.36,1.63-9.25,3.94l-8.45,22.06c-1.73,4.51-6.25,7.13-10.5,6.98-13.25-.46-12.11-12.1-18.24-19.99-3.69,12.38-9.48,22.04-21.53,25.66-3.35,1-7.66-3.62-9-6.34l-8.49-17.29-10.19,19.81c-2.04,3.97-4.89,6.79-9.51,5.99-9.63-1.68-10.36-22.25-13.11-31.36-8.33-2.5-18.83-4.52-23.89-13.65,14.63,8.11,27.9,11.5,43.63,11.74,16.23.25,32.52,3.89,48.71-.07,40.74-9.97,66.36-22.21,98.34-49.13,13.2-11.11,16.23-23.91,11.22-40.18-4.26-13.85-17.13-21.94-24.07-34.53-15.64-28.36-36.72-52.88-69.39-61.87-19.05-5.24-39.02-4.41-58.98-3.21-22.11,1.32-42.05,5.11-62.8,13.72-51.26,21.27-96.57,61.07-129.98,105.91-18.46,24.77-32.31,52.87-47.46,80.21-22.81,41.15-27.47,110.44-52.62,165.68-13.22,29.04-34.46,51.71-56.07,74.69-16.65,17.71-34.53,31.7-57.73,40.11-6.36,2.31-12.17,9.75-11.29,16.02s5.6,12.74,12.92,15.79c34.01,14.13,73.05,13.58,108.85,3.12,29.83-8.72,75.83-19.4,95.14-42.25-6.01-6.15-12.36-12.9-11.07-22.47,8.51,3.38,12.98,10.78,20.2,14.76,40.56,22.36,114.2,22.96,159.9,20.85,28.41-1.31,53.85-9.41,80.09-19.87,30.71-12.25,60.36-28.4,80.96-54.67,10.15-12.95,17.33-28.11,17.52-44.45.37-32.23-2.51-64.23-11.3-95.08-4.72-16.56-14.61-30.56-20.87-46.73-13.97,10.58-26.59,19-42.03,25.05l.04,23.46c16.54,69.5,47.08,83.93,4.47,152.58-15.43-5.42-25.34-14.97-34.98-25.96-1.27-40.75,1.22-79.81,2.41-120.17-5.38-4.16-9.82-7.79-13.13-13.66-22.68,4.98-70.24,4-92.39-5.51-26.22-11.26-47.55-33.71-58.06-59.76-6.36-15.78,0-29.48,5.93-43.49ZM331.47,120.47c8.25-6.29,13.94-9.94,22.02-14.9-2.56-3.48-7.58-9.68-12.08-10.3-10.16-1.38-11.81,16.99-9.95,25.2ZM568.58,279.81c6.7,5.79,16.81-23.67,12.64-32.32l-26.31,16.12c4.82,6.03,8.12,11.4,13.67,16.2ZM528.85,272.72l-18.37,3.9,5.13,13.29c.71,1.85,2.92,4.51,4.56,4.96,7.92,2.17,8.38-16.74,8.68-22.15ZM454.56,281.21c-5.67-1.18-9.57-1.55-16.01-.58l7.55,21.92c4-7.88,5.96-13.86,8.46-21.34ZM493.13,282.55c-7.78-.51-13.04-.57-19.95-.21l7.17,15.9c6.28-4.35,9.86-8.59,12.78-15.69ZM522.1,349.75c-.07-3.6-.36-6.38-1.13-9.5-9.78,3.61-17.36,6.6-25.3,10.95,3.52,6.38,8.44,10.28,13.88,9.31,6.74-1.2,12.69-2.7,12.55-10.75ZM531.41,504.16c10.82-18.6,15.94-37.31,19.02-57.08l-27.64-83.32c-5.65,2.27-10.18,3.44-15.85,4.78-2.68,38.83-2.61,76.76-.69,115.46,6.12,9.29,15.1,15.44,25.16,20.15ZM116.18,496.61c-7.37-4.24-14.07-8.16-22.87-9.36-3.33,11.25-4.01,22.02-.6,33.42l23.47-24.06ZM52.76,548.87c11.69-6,21.28-11.54,30.15-20.55-3-6.32-37.29-36.88-35.02-15.64,1.31,12.23.72,23.77,4.87,36.19Z"/><path d="M318.06,452.95c-15.07-12.6-16.55-51.37-11.58-40.34l1.75,3.88c4.59,10.19,4.6,25.86,15.9,32.34s28.62,2.8,39.56-2.7c6.13-3.08,3.46-18.65-2.47-20.18-29.32-7.56-29.63-35.65-22.64-28.49,3.19,3.27,1.78,16.48,14.48,16.81,1.92-28.75-7.41-14.38-7.52-30.45-.02-3.31.81-7.26,2.79-9.47,2.64-2.95,8.53.29,10.97-1.01,8.61-4.58-4.45-12.12,43.66-8.53,17.97,1.34,10.31,13.79,23.8,19.51,6.37,9.29-5.36,18.24-8.03,25.27-11.8,31.08-5.11,62.92-17.68,74.5-13.56,2.51-39.5,4.56-48.74-8.2-2.93-4.05-1.36-12.15-1.33-17.4-10.4-2.82-23.77,2.12-32.92-5.54ZM382.27,399.64c9.99,2.2,18.81,1.95,28.37,4.57,2.6.71,8.12-.92,9.51-2.91,2.32-3.32,5.92-13.81.57-16.63-1.61-.85-4.34,1.4-7.62,2.7.98-6.07,2.1-13.24-4.35-15.66-7.39-2.78-41.44-8.44-40.34,2.66.93,9.3,15.27,2.49,16.18,12.46-14.73,2.54-22.02-14.18-32.1-8.87-3.79,2-2.48,7.04-1.6,10.14.94,3.31,4.17,5.55,8.23,6.44l23.14,5.09ZM358.11,475.7c14.15,7.24,30.06,6.49,43.88.53,1.12-22.85,4.41-43.49,9.71-65.75-9.27-5.52-20.07-4.48-30.1-6.64l-21.98-4.73,1.47,20.36c13.88,4.66,11.74,25.28,8.47,28.57-1.69,1.7-6.21,2.98-9.1,4.27-2.45,6.64-2.91,15.45-2.35,23.38Z"/><path d="M439.65,219.07c-2.84,1.6-7.48,1.07-10.51-.97-11.24-7.54-22.01-71.47-3.49-92.8,3.76-4.34,11.06,3.33,12,7.86,5.24,25.34,11.36,61.42,2.01,85.91ZM431.03,188.28c3.12-15.4,1.66-30.95-1.17-45.85-3.65,16.2.33,31.07,1.17,45.85Z"/><path d="M534.15,202.26c-24.11,5.59-14.86-58.84-13.51-71.89.65-6.32,5.04-10.19,10.02-9.59,6.48.78,8.92,4.34,9.83,10.7,3.35,23.32.59,47.4-6.34,70.78ZM531.02,172.2c1.61-13.7,3.61-27.59-.21-41.93-2.09,14.51-2.11,27.96.21,41.93Z"/></g></svg></svg>
